<?xml version="1.0" standalone="no"?>
<!DOCTYPE svg PUBLIC "-//W3C//DTD SVG 20010904//EN"
 "http://www.w3.org/TR/2001/REC-SVG-20010904/DTD/svg10.dtd">
<svg version="1.0" xmlns="http://www.w3.org/2000/svg"
 width="279.000000pt" height="294.000000pt" viewBox="0 0 279.000000 294.000000"
 preserveAspectRatio="xMidYMid meet">

<g transform="translate(0.000000,294.000000) scale(0.100000,-0.100000)"
fill="#000000" stroke="none">
<path d="M0 1470 l0 -1470 495 0 c308 0 495 4 495 10 0 8 -36 164 -90 385 -45
189 -51 277 -24 405 7 34 7 35 -13 18 -15 -14 -22 -15 -31 -6 -7 7 -12 18 -12
25 0 16 37 36 51 28 5 -4 16 -1 24 5 13 11 15 6 15 -26 0 -22 9 -57 20 -79 17
-34 19 -36 13 -10 -8 37 -8 58 0 113 3 23 2 40 -2 38 -4 -3 -8 10 -9 28 -1 27
3 35 21 40 12 3 23 1 25 -4 2 -6 10 -10 18 -10 8 0 14 -4 14 -9 0 -5 23 -24
50 -42 28 -18 50 -35 50 -38 0 -12 84 -33 88 -22 2 6 17 11 33 11 16 0 57 12
92 26 48 20 86 27 172 31 l110 6 33 43 c17 24 32 48 32 54 0 5 4 10 8 10 5 0
23 21 41 46 21 28 39 43 47 40 9 -3 14 1 14 12 0 13 3 12 16 -6 10 -15 16 -43
15 -76 0 -28 6 -65 14 -80 8 -16 15 -34 15 -41 0 -7 7 -18 15 -25 14 -11 14
-10 5 15 -14 36 -29 105 -23 105 2 0 16 -6 31 -14 74 -39 138 -147 161 -270 7
-36 11 -196 11 -398 l0 -338 375 0 375 0 0 1470 0 1470 -236 0 -235 0 3 -27 3
-27 188 3 187 2 0 -65 0 -66 -255 0 -255 0 0 90 0 90 -55 0 -55 0 0 -74 c0
-104 -1 -106 -71 -106 l-59 0 0 90 0 90 -170 0 -170 0 -1 -47 c-4 -133 -8
-138 -80 -115 l-49 16 0 73 0 73 -170 0 -170 0 0 -74 c0 -41 -5 -78 -10 -81
-6 -4 -35 -9 -65 -12 l-55 -6 0 87 0 86 -505 0 -505 0 0 -1470z m1423 823 c4
-3 18 -8 32 -9 14 -1 37 -12 51 -23 15 -12 33 -21 40 -21 8 0 14 -4 14 -10 0
-5 11 -10 25 -10 15 0 36 -11 48 -24 55 -59 67 -78 67 -99 1 -12 7 -40 15 -62
8 -23 10 -43 5 -50 -5 -6 -5 -17 1 -25 7 -12 11 -12 17 -2 6 9 14 0 25 -30 43
-120 44 -137 14 -273 -8 -38 -18 -122 -20 -185 -5 -116 -36 -261 -56 -268 -6
-2 -11 -10 -11 -17 0 -17 -88 -95 -107 -95 -20 0 -84 -35 -111 -60 -31 -30
-125 -60 -186 -60 -68 0 -114 14 -145 44 -18 17 -40 26 -73 29 -55 5 -136 52
-144 85 -4 12 -10 22 -14 22 -12 0 -50 83 -50 108 0 12 -4 22 -9 22 -5 0 -11
15 -14 33 -2 17 -14 68 -26 111 -11 44 -21 97 -21 118 0 35 -2 39 -20 33 -11
-3 -20 -5 -20 -3 -8 46 -8 185 -2 218 9 45 9 45 20 18 6 -16 15 -28 19 -27 5
0 22 19 38 41 55 75 72 82 203 88 99 4 117 8 120 22 7 35 -40 50 -145 46 -90
-3 -101 -5 -135 -31 -21 -16 -52 -50 -69 -75 l-31 -47 6 68 c4 37 12 79 18 93
10 22 16 24 48 19 27 -5 42 -1 62 14 14 11 28 18 30 15 3 -2 11 17 18 43 21
83 31 101 63 117 18 9 25 16 17 16 -13 1 -13 2 0 9 8 5 26 12 40 16 23 7 24 6
11 -9 -13 -16 -12 -17 15 -10 16 3 48 17 71 29 44 24 117 43 188 48 22 2 45 4
51 5 6 1 14 -1 17 -5z m-623 -263 c0 -5 -2 -10 -4 -10 -3 0 -8 5 -11 10 -3 6
-1 10 4 10 6 0 11 -4 11 -10z m1283 -52 c24 -37 -25 -67 -53 -33 -10 13 -9 19
5 35 20 22 33 22 48 -2z m-125 -209 c40 -14 65 -66 59 -122 -10 -96 -38 -171
-80 -215 -48 -49 -84 -70 -111 -64 -15 3 -17 10 -12 40 11 69 32 266 35 333 1
17 34 37 62 38 9 1 30 -4 47 -10z m-1254 -146 c4 -9 1 -20 -6 -25 -8 -5 -9 -8
-2 -8 7 0 14 -12 17 -27 27 -127 40 -182 52 -208 32 -74 27 -93 -20 -81 -33 8
-113 90 -121 123 -4 15 -15 45 -25 65 -34 68 -20 133 36 166 29 17 62 14 69
-5z m-389 -193 c18 -20 18 -21 -3 -42 -21 -21 -22 -21 -42 -3 -25 22 -25 34
-2 51 23 18 26 17 47 -6z m2336 -10 c24 -13 24 -32 0 -54 -18 -17 -20 -17 -41
4 -21 21 -21 23 -4 41 20 22 20 22 45 9z m-571 -602 c0 -4 -5 -8 -11 -8 -15 0
-48 43 -42 53 6 9 53 -31 53 -45z"/>
<path d="M1465 2033 c-11 -2 -27 -7 -35 -10 -8 -3 -24 -8 -34 -10 -30 -5 -57
-34 -54 -57 3 -18 10 -20 62 -17 32 1 70 7 83 12 49 19 126 11 170 -17 43 -28
73 -71 66 -91 -3 -7 0 -13 5 -13 16 0 24 53 13 82 -13 34 -98 106 -141 118
-35 10 -98 11 -135 3z"/>
<path d="M1425 1870 l-40 -19 36 5 c33 5 37 3 43 -20 4 -16 17 -31 33 -37 24
-9 152 -3 163 8 3 2 -6 13 -20 23 -17 13 -20 20 -10 20 11 1 8 6 -9 20 -13 11
-28 20 -35 19 -7 0 -7 -2 2 -6 6 -2 12 -8 12 -13 0 -4 -17 -2 -37 6 -53 18
-91 17 -138 -6z m152 -47 c4 -11 -26 -27 -35 -19 -2 3 -2 12 2 21 6 18 27 16
33 -2z"/>
<path d="M975 1831 c-22 -12 -45 -19 -52 -17 -6 3 -17 -2 -23 -10 -10 -11 -10
-14 0 -14 10 0 9 -4 -2 -17 -37 -43 -34 -46 33 -38 70 8 133 33 135 53 4 45 3
45 41 39 25 -4 33 -3 26 4 -6 6 -34 12 -64 15 -42 4 -63 1 -94 -15z m13 -53
c19 -19 14 -26 -13 -20 -25 4 -31 13 -18 25 9 10 17 9 31 -5z"/>
<path d="M1181 1824 c0 -11 3 -14 6 -6 3 7 2 16 -1 19 -3 4 -6 -2 -5 -13z"/>
<path d="M1370 1829 c0 -5 5 -7 10 -4 6 3 10 8 10 11 0 2 -4 4 -10 4 -5 0 -10
-5 -10 -11z"/>
<path d="M1300 1560 c-10 -19 -9 -20 17 -14 37 9 41 13 23 24 -22 14 -28 12
-40 -10z"/>
<path d="M1185 1561 c-6 -11 31 -34 47 -29 6 2 4 11 -6 21 -20 19 -32 21 -41
8z"/>
<path d="M1145 1530 c3 -5 16 -10 28 -9 21 0 21 1 2 9 -28 12 -37 12 -30 0z"/>
<path d="M1148 1353 c-21 -8 -38 -19 -38 -24 0 -20 27 -18 74 6 27 14 44 25
39 25 -6 0 -17 2 -25 5 -7 2 -30 -3 -50 -12z"/>
<path d="M1390 1358 c60 -16 100 -21 100 -10 0 13 -36 22 -90 21 l-45 -1 35
-10z"/>
<path d="M1875 828 c3 -13 11 -42 17 -65 11 -51 21 -54 38 -13 11 27 10 32
-11 50 -13 10 -27 19 -31 20 -4 0 -5 7 -2 15 4 8 1 15 -6 15 -8 0 -10 -8 -5
-22z"/>
<path d="M1729 365 c-24 -19 -52 -35 -61 -35 -10 0 -17 -3 -17 -7 5 -29 -5
-31 -143 -30 -79 0 -153 -3 -166 -7 -18 -6 -30 0 -64 33 l-41 41 -31 -24 c-17
-13 -39 -37 -48 -53 l-17 -29 27 4 c63 9 112 -39 189 -185 l38 -73 112 0 c111
0 113 0 111 23 -1 12 18 69 41 126 44 102 50 109 124 153 75 43 77 43 110 24
l32 -18 -20 23 c-16 17 -112 69 -129 69 -2 0 -23 -16 -47 -35z"/>
</g>
</svg>
